<?xml version="1.0" encoding="UTF-8"?>
  <svg version="1.1" xmlns="http://www.w3.org/2000/svg" width="128" height="128">
            <path d="M0 0 C6.084375 -0.020625 12.16875 -0.04125 18.4375 -0.0625 C20.36005615 -0.071604 22.2826123 -0.08070801 24.26342773 -0.09008789 C25.77848236 -0.09300707 27.29353777 -0.09555562 28.80859375 -0.09765625 C29.60237427 -0.10277222 30.39615479 -0.10788818 31.21398926 -0.11315918 C33.14302829 -0.11346956 35.07196912 -0.06235893 37 0 C38 1 38 1 38.12025452 3.73976135 C38.11803391 4.96331833 38.11581329 6.18687531 38.11352539 7.44750977 C38.11367142 8.12065216 38.11381744 8.79379456 38.1139679 9.48733521 C38.11326878 11.72205784 38.10547652 13.9566981 38.09765625 16.19140625 C38.09579206 17.73697362 38.09436816 19.28254157 38.09336853 20.82810974 C38.0895434 24.90357077 38.07971317 28.97899637 38.06866455 33.05444336 C38.05665566 37.94027728 38.05204817 42.82612302 38.04621124 47.71196747 C38.0365014 55.14133631 38.01734484 62.57062737 38 70 C25.46 70 12.92 70 0 70 C0 46.9 0 23.8 0 0 Z " fill="#fff" transform="translate(82,50)" />
            <path d="M0 0 C0 22.77 0 45.54 0 69 C-6.084375 69.020625 -12.16875 69.04125 -18.4375 69.0625 C-21.32133423 69.07615601 -21.32133423 69.07615601 -24.26342773 69.09008789 C-25.77848236 69.09300707 -27.29353777 69.09555562 -28.80859375 69.09765625 C-29.60237427 69.10277222 -30.39615479 69.10788818 -31.21398926 69.11315918 C-33.14302829 69.11346956 -35.07196912 69.06235893 -37 69 C-40.81261982 65.18738018 -40.39188724 55.89732537 -40.64819336 50.64038086 C-40.54194037 37.79370489 -33.52618053 30.36035747 -24.81298828 21.58886719 C-2.5193299 0 -2.5193299 0 0 0 Z " fill="#fff" transform="translate(72,51)" />
            <path d="M0 0 C3.33261219 0.44150001 4.91585357 1.55332917 7.234375 3.94140625 C7.80800781 4.52470703 8.38164063 5.10800781 8.97265625 5.70898438 C9.85244141 6.62647461 9.85244141 6.62647461 10.75 7.5625 C11.35199219 8.17802734 11.95398437 8.79355469 12.57421875 9.42773438 C14.05634381 10.94514813 15.5290967 12.47170596 17 14 C11.95828313 20.08811094 6.53776124 25.78059966 0.99536133 31.40966797 C-0.05126743 32.47811174 -1.09157087 33.55278528 -2.12573242 34.63330078 C-3.63342241 36.20763556 -5.15966385 37.76160156 -6.69140625 39.3125 C-7.59060791 40.23675781 -8.48980957 41.16101563 -9.41625977 42.11328125 C-12 44 -12 44 -14.64868164 43.93847656 C-18.04662217 42.58226398 -20.34939663 40.30901082 -22.875 37.75 C-23.64070313 37.03263672 -23.64070313 37.03263672 -24.421875 36.30078125 C-25.8671875 34.859375 -25.8671875 34.859375 -28 32 C-27.99952989 27.61577282 -25.83395615 25.34140804 -22.87272644 22.29129028 C-22.2998439 21.72336761 -21.72696136 21.15544495 -21.13671875 20.5703125 C-20.54832718 19.97572235 -19.95993561 19.3811322 -19.35371399 18.76852417 C-18.11036781 17.51808903 -16.86187918 16.27274894 -15.60864258 15.03222656 C-13.68877512 13.12626588 -11.7941638 11.19747507 -9.90039062 9.265625 C-8.68895166 8.05323524 -7.47610763 6.84224747 -6.26171875 5.6328125 C-5.69490891 5.05274445 -5.12809906 4.47267639 -4.54411316 3.87503052 C-2.91674805 2.28564453 -2.91674805 2.28564453 0 0 Z " fill="#fff" transform="translate(38,47)" />
            <path d="M0 0 C3.3201573 1.32110971 5.56191214 3.66146539 8.05078125 6.140625 C8.56576172 6.61886719 9.08074219 7.09710938 9.61132812 7.58984375 C13.23046523 11.1653768 13.23046523 11.1653768 13.26269531 14.15600586 C11.75644744 18.17685486 9.06800031 20.55529556 6.015625 23.50390625 C5.39555069 24.11832077 4.77547638 24.73273529 4.13661194 25.36576843 C2.15887542 27.32115958 0.16767308 29.26216564 -1.82421875 31.203125 C-3.16953223 32.52837125 -4.51394445 33.85453309 -5.85742188 35.18164062 C-9.14850003 38.42867573 -12.45172307 41.66288096 -15.76171875 44.890625 C-16.87720014 43.93664944 -17.99237515 42.98231561 -19.10742188 42.02783203 C-19.72846802 41.49642609 -20.34951416 40.96502014 -20.98937988 40.41751099 C-23.12522359 38.57746229 -25.21771318 36.70743029 -27.26171875 34.765625 C-28.298125 33.80269531 -28.298125 33.80269531 -29.35546875 32.8203125 C-30.76171875 30.890625 -30.76171875 30.890625 -30.50389099 28.94657898 C-29.27575113 25.54440508 -26.58349956 23.32808099 -24.046875 20.84765625 C-23.47593613 20.27859055 -22.90499725 19.70952484 -22.3167572 19.12321472 C-21.11058103 17.92375194 -19.90081681 16.72788797 -18.68774414 15.53540039 C-16.82761379 13.7064631 -14.97840203 11.86703451 -13.13085938 10.02539062 C-11.95765261 8.86135258 -10.7838447 7.69792003 -9.609375 6.53515625 C-9.05411636 5.98414749 -8.49885773 5.43313873 -7.92677307 4.86543274 C-2.79258452 -0.17337554 -2.79258452 -0.17337554 0 0 Z " fill="#fff" transform="translate(77.76171875,10.109375)" />
            <path d="M0 0 C2.77645105 2.08233829 4.39338877 3.64679032 5.8125 6.8125 C5.874375 7.534375 5.93625 8.25625 6 9 C6.2475 10.85625 6.2475 10.85625 6.5 12.75 C6.47284823 17.56491357 3.96194439 20.11066859 0.82421875 23.53125 C-1 25 -1 25 -4 25 C-3.505 23.8553125 -3.505 23.8553125 -3 22.6875 C-1.66054332 17.74825349 -1.83712342 13.08536891 -2 8 C-5.20959138 7.02072387 -5.20959138 7.02072387 -8.4375 7.9375 C-13.40101339 11.93252297 -16.60969704 17.80683229 -18 24 C-18.42304802 28.31357888 -18.72968208 31.75345978 -16.5 35.5625 C-16.005 36.036875 -15.51 36.51125 -15 37 C-15.66 38.32 -16.32 39.64 -17 41 C-21 41 -21 41 -24 39 C-32.25166607 37.57501349 -38.50614325 40.96721062 -45.4375 45 C-47.93999891 46.95316988 -49.14687576 47.96666938 -50 51 C-49.70630173 52.34262065 -49.37720442 53.67840789 -49 55 C-42.59370576 55.20852314 -37.07027358 55.1583195 -31 53 C-33.01901226 57.50847398 -35.7733726 60.43916105 -40 63 C-45.48512895 64.34439435 -50.18313223 62.6011086 -55 60 C-57.70557541 55.94163689 -57.63840058 52.7634505 -57 48 C-53.28868152 40.11344823 -45.51913889 35.65199008 -37.609375 32.6796875 C-33.39392867 31.58165208 -29.31792997 31.66926494 -25 32 C-25.04640625 31.39414062 -25.0928125 30.78828125 -25.140625 30.1640625 C-25.55225873 20.60827954 -22.56776629 13.09813354 -16.55859375 5.6953125 C-11.77766905 0.49500844 -6.93532998 -1.49435287 0 0 Z " fill="#fff" transform="translate(57,0)" />
          </svg>
